<svg width="97" height="97" viewBox="0 0 97 97" fill="none" xmlns="http://www.w3.org/2000/svg">
<g clip-path="url(#clip0_1400_5929)">
<rect width="97" height="97" rx="15" fill="white"/>
<path d="M38.9505 47.441L18.4968 36.9195L27.662 12.2696L50.0211 17.6665L60.3732 20.1653L48.4204 52.3124L38.9505 47.441Z" stroke="#707C8B"/>
<path d="M16.0964 31.1956L16.1503 31.1967L16.2028 31.2092L20.1316 32.1506L25.807 16.8867L22.2175 15.0325L22.1696 15.0078L22.1281 14.9734L20.9341 13.9847L14.5465 31.1641L16.0964 31.1956Z" stroke="#707C8B"/>
<circle cx="33.6684" cy="27.9406" r="5.39349" transform="rotate(-69.6041 33.6684 27.9406)" stroke="#707C8B"/>
<circle cx="33.6685" cy="27.9405" r="2.9174" transform="rotate(-69.6041 33.6685 27.9405)" stroke="#707C8B"/>
<mask id="path-7-inside-1_1400_5929" fill="white">
<path d="M56.4839 29.6409C57.7925 30.1275 58.7968 31.2685 59.2758 32.8131C59.7548 34.3576 59.6693 36.1791 59.0381 37.8768C58.4068 39.5746 57.2816 41.0095 55.9098 41.8659C54.5381 42.7223 53.0323 42.9301 51.7237 42.4435L54.1038 36.0422L56.4839 29.6409Z"/>
</mask>
<path d="M56.4839 29.6409C57.7925 30.1275 58.7968 31.2685 59.2758 32.8131C59.7548 34.3576 59.6693 36.1791 59.0381 37.8768C58.4068 39.5746 57.2816 41.0095 55.9098 41.8659C54.5381 42.7223 53.0323 42.9301 51.7237 42.4435L54.1038 36.0422L56.4839 29.6409Z" stroke="#707C8B" stroke-width="2" mask="url(#path-7-inside-1_1400_5929)"/>
<line x1="33.7728" y1="27.5723" x2="33.7728" y2="138.449" stroke="#707C8B"/>
<line x1="62.0642" y1="30.5897" x2="73.6666" y2="29.2499" stroke="#707C8B"/>
<line x1="76.9834" y1="28.8433" x2="81.821" y2="28.2723" stroke="#707C8B"/>
<line x1="68.4005" y1="40.723" x2="76.0269" y2="43.2679" stroke="#707C8B"/>
<path d="M56.9494 44.5406L69.6419 56.205" stroke="#707C8B"/>
<path d="M75.6919 62.0484L71.756 58.4112" stroke="#707C8B"/>
<path d="M61.4348 38.4819L66.8339 40.2621M83.0313 45.6027L77.6322 43.8225" stroke="#707C8B"/>
</g>
<rect x="0.5" y="0.5" width="96" height="96" rx="14.5" stroke="#CFD3D8"/>
<defs>
<clipPath id="clip0_1400_5929">
<rect width="97" height="97" rx="15" fill="white"/>
</clipPath>
</defs>
</svg>
