<svg width="97" height="97" viewBox="0 0 97 97" fill="none" xmlns="http://www.w3.org/2000/svg">
<rect x="0.5" y="0.5" width="96" height="96" rx="14.5" fill="white"/>
<rect x="15.247" y="15.2471" width="66.506" height="66.506" rx="9.5" stroke="#707C8B"/>
<rect x="30.1512" y="31.0278" width="36.6989" height="35.8222" rx="17.9111" stroke="#707C8B"/>
<rect x="37.165" y="45.9321" width="5.13703" height="5.13703" rx="2.56851" stroke="#707C8B"/>
<rect x="54.6994" y="45.9321" width="5.13703" height="5.13703" rx="2.56851" stroke="#707C8B"/>
<path d="M59.905 76.7339V76.0981H60.8806V73.6372L60.0309 74.106L59.7966 73.5229L61.0124 72.8813H61.613V76.0981H62.4538V76.7339H59.905ZM65.902 74.8032C65.902 75.1177 65.8679 75.3989 65.7995 75.647C65.7311 75.895 65.6306 76.105 65.4977 76.2769C65.3669 76.4468 65.2067 76.5767 65.0173 76.6665C64.8278 76.7563 64.611 76.8013 64.3669 76.8013C64.1559 76.8013 63.9616 76.7642 63.7839 76.6899C63.6061 76.6157 63.4528 76.4995 63.3239 76.3413C63.195 76.1812 63.0944 75.9771 63.0222 75.729C62.9499 75.481 62.9138 75.1841 62.9138 74.8384C62.9138 74.5239 62.9479 74.2427 63.0163 73.9946C63.0866 73.7466 63.1872 73.5376 63.3181 73.3677C63.4489 73.1958 63.61 73.0649 63.8015 72.9751C63.9929 72.8853 64.2097 72.8403 64.4518 72.8403C64.6628 72.8403 64.8571 72.8774 65.0349 72.9517C65.2126 73.0259 65.3649 73.1421 65.4919 73.3003C65.6208 73.4585 65.7214 73.6616 65.7936 73.9097C65.8659 74.1577 65.902 74.4556 65.902 74.8032ZM63.6345 74.8149C63.6345 74.854 63.6345 74.8911 63.6345 74.9263C63.6345 74.9595 63.6364 74.9937 63.6403 75.0288L65.0759 73.9917C65.0075 73.7983 64.9167 73.6558 64.8034 73.564C64.6921 73.4702 64.5602 73.4233 64.4079 73.4233C64.2985 73.4233 64.197 73.4517 64.1032 73.5083C64.0095 73.563 63.9274 73.6479 63.8571 73.7632C63.7888 73.8784 63.7341 74.0229 63.6931 74.1968C63.654 74.3706 63.6345 74.5767 63.6345 74.8149ZM65.1813 74.8267C65.1813 74.7935 65.1804 74.7603 65.1784 74.7271C65.1765 74.6919 65.1755 74.6587 65.1755 74.6274L63.7487 75.6587C63.8112 75.8481 63.8991 75.9888 64.0124 76.0806C64.1257 76.1724 64.2575 76.2183 64.4079 76.2183C64.5173 76.2183 64.6188 76.1899 64.7126 76.1333C64.8083 76.0767 64.8903 75.9917 64.9587 75.8784C65.029 75.7632 65.0837 75.6187 65.1227 75.4448C65.1618 75.269 65.1813 75.063 65.1813 74.8267ZM69.2009 74.8032C69.2009 75.1177 69.1667 75.3989 69.0983 75.647C69.03 75.895 68.9294 76.105 68.7966 76.2769C68.6657 76.4468 68.5056 76.5767 68.3161 76.6665C68.1266 76.7563 67.9099 76.8013 67.6657 76.8013C67.4548 76.8013 67.2604 76.7642 67.0827 76.6899C66.905 76.6157 66.7516 76.4995 66.6227 76.3413C66.4938 76.1812 66.3932 75.9771 66.321 75.729C66.2487 75.481 66.2126 75.1841 66.2126 74.8384C66.2126 74.5239 66.2468 74.2427 66.3151 73.9946C66.3854 73.7466 66.486 73.5376 66.6169 73.3677C66.7477 73.1958 66.9089 73.0649 67.1003 72.9751C67.2917 72.8853 67.5085 72.8403 67.7507 72.8403C67.9616 72.8403 68.1559 72.8774 68.3337 72.9517C68.5114 73.0259 68.6638 73.1421 68.7907 73.3003C68.9196 73.4585 69.0202 73.6616 69.0925 73.9097C69.1647 74.1577 69.2009 74.4556 69.2009 74.8032ZM66.9333 74.8149C66.9333 74.854 66.9333 74.8911 66.9333 74.9263C66.9333 74.9595 66.9352 74.9937 66.9391 75.0288L68.3747 73.9917C68.3063 73.7983 68.2155 73.6558 68.1022 73.564C67.9909 73.4702 67.8591 73.4233 67.7067 73.4233C67.5974 73.4233 67.4958 73.4517 67.402 73.5083C67.3083 73.563 67.2263 73.6479 67.1559 73.7632C67.0876 73.8784 67.0329 74.0229 66.9919 74.1968C66.9528 74.3706 66.9333 74.5767 66.9333 74.8149ZM68.4802 74.8267C68.4802 74.7935 68.4792 74.7603 68.4772 74.7271C68.4753 74.6919 68.4743 74.6587 68.4743 74.6274L67.0475 75.6587C67.11 75.8481 67.1979 75.9888 67.3112 76.0806C67.4245 76.1724 67.5563 76.2183 67.7067 76.2183C67.8161 76.2183 67.9177 76.1899 68.0114 76.1333C68.1071 76.0767 68.1891 75.9917 68.2575 75.8784C68.3278 75.7632 68.3825 75.6187 68.4216 75.4448C68.4606 75.269 68.4802 75.063 68.4802 74.8267ZM72.4997 74.8032C72.4997 75.1177 72.4655 75.3989 72.3972 75.647C72.3288 75.895 72.2282 76.105 72.0954 76.2769C71.9645 76.4468 71.8044 76.5767 71.6149 76.6665C71.4255 76.7563 71.2087 76.8013 70.9645 76.8013C70.7536 76.8013 70.5593 76.7642 70.3815 76.6899C70.2038 76.6157 70.0505 76.4995 69.9216 76.3413C69.7927 76.1812 69.6921 75.9771 69.6198 75.729C69.5475 75.481 69.5114 75.1841 69.5114 74.8384C69.5114 74.5239 69.5456 74.2427 69.614 73.9946C69.6843 73.7466 69.7849 73.5376 69.9157 73.3677C70.0466 73.1958 70.2077 73.0649 70.3991 72.9751C70.5905 72.8853 70.8073 72.8403 71.0495 72.8403C71.2604 72.8403 71.4548 72.8774 71.6325 72.9517C71.8102 73.0259 71.9626 73.1421 72.0895 73.3003C72.2184 73.4585 72.319 73.6616 72.3913 73.9097C72.4636 74.1577 72.4997 74.4556 72.4997 74.8032ZM70.2321 74.8149C70.2321 74.854 70.2321 74.8911 70.2321 74.9263C70.2321 74.9595 70.2341 74.9937 70.238 75.0288L71.6735 73.9917C71.6052 73.7983 71.5143 73.6558 71.4011 73.564C71.2897 73.4702 71.1579 73.4233 71.0056 73.4233C70.8962 73.4233 70.7946 73.4517 70.7009 73.5083C70.6071 73.563 70.5251 73.6479 70.4548 73.7632C70.3864 73.8784 70.3317 74.0229 70.2907 74.1968C70.2516 74.3706 70.2321 74.5767 70.2321 74.8149ZM71.779 74.8267C71.779 74.7935 71.778 74.7603 71.7761 74.7271C71.7741 74.6919 71.7731 74.6587 71.7731 74.6274L70.3464 75.6587C70.4089 75.8481 70.4968 75.9888 70.61 76.0806C70.7233 76.1724 70.8552 76.2183 71.0056 76.2183C71.1149 76.2183 71.2165 76.1899 71.3102 76.1333C71.4059 76.0767 71.488 75.9917 71.5563 75.8784C71.6266 75.7632 71.6813 75.6187 71.7204 75.4448C71.7595 75.269 71.779 75.063 71.779 74.8267ZM76.6021 76.7339H75.7554L75.3775 75.5532L75.2398 75.0728L75.1079 75.5649L74.7359 76.7339H73.9243L73.7105 72.9048H74.3462L74.437 75.3599L74.4605 76.0308L74.6333 75.4331L75.0552 74.0708H75.5093L75.9546 75.5151L76.0982 76.0249L76.1099 75.4272L76.2066 72.9048H76.8189L76.6021 76.7339Z" fill="#707C8B"/>
<line x1="49.5084" y1="49.001" x2="47.4931" y2="49.001" stroke="#707C8B" stroke-linecap="round"/>
<rect x="0.5" y="0.5" width="96" height="96" rx="14.5" stroke="#CFD3D8"/>
</svg>
