<svg width="97" height="97" viewBox="0 0 97 97" fill="none" xmlns="http://www.w3.org/2000/svg">
<rect x="0.5" y="0.5" width="96" height="96" rx="14.5" fill="white"/>
<path d="M43.0725 84.6185V85.1185H43.5725V84.6185H43.0725ZM45.9442 84.6185H45.4442V85.1185H45.9442V84.6185ZM13.6297 56.1917L19.887 54.6813L19.6523 53.7092L13.3951 55.2196L13.6297 56.1917ZM20.2491 54.3369L21.6517 49.5901L20.6926 49.3067L19.2901 54.0536L20.2491 54.3369ZM19.3739 54.5009L27.7889 65.3972L28.5803 64.786L20.1654 53.8896L19.3739 54.5009ZM27.6846 65.0916V83.6185H28.6846V65.0916H27.6846ZM29.1846 85.1185H43.0725V84.1185H29.1846V85.1185ZM43.5725 84.6185V60.6684H42.5725V84.6185H43.5725ZM42.9301 60.1891L28.0422 64.6123L28.327 65.5709L43.2149 61.1477L42.9301 60.1891ZM43.5725 60.6684V8.77637H42.5725V60.6684H43.5725ZM45.4442 60.6684V84.6185H46.4442V60.6684H45.4442ZM45.9442 85.1185H83.4877V84.1185H45.9442V85.1185ZM27.6846 83.6185C27.6846 84.447 28.3562 85.1185 29.1846 85.1185V84.1185C28.9084 84.1185 28.6846 83.8947 28.6846 83.6185H27.6846Z" fill="#707C8B"/>
<circle cx="31.6074" cy="86.4213" r="1.80262" stroke="#707C8B"/>
<circle cx="75.7181" cy="86.4213" r="1.80262" stroke="#707C8B"/>
<rect x="0.5" y="0.5" width="96" height="96" rx="14.5" stroke="#CFD3D8"/>
</svg>
