<svg width="97" height="97" viewBox="0 0 97 97" fill="none" xmlns="http://www.w3.org/2000/svg">
<rect x="0.5" y="0.5" width="96" height="96" rx="14.5" fill="white"/>
<path d="M27.0668 59.5608C27.0668 60.2993 26.9437 61.7763 26.9437 61.8994C26.6975 63.9919 26.5744 64.2381 25.3436 66.3306L17.9583 78.7624C16.112 81.8396 11.4347 79.1317 13.0348 75.8083L19.5585 62.8841L21.0355 52.5448M56.2385 74.3313C54.6384 74.3313 53.2844 75.6852 53.2844 77.2854C53.2844 78.8855 54.6384 80.2394 56.2385 80.2394C57.8387 80.2394 59.1926 78.8855 59.1926 77.2854C59.1926 75.5621 57.8387 74.3313 56.2385 74.3313ZM56.2385 74.3313L53.5306 52.0524L52.5459 45.6519L49.0994 45.1595M56.2385 74.3313H87.6306M56.2385 74.3313L53.5306 51.9293M56.2385 74.3313L55.7203 74.379L54.6384 74.8236M32.4826 42.6978L30.8825 50.2061C30.7594 50.6985 30.7594 51.1908 31.0056 51.5601L36.2983 58.9453C37.0369 59.8069 37.4061 60.9147 37.4061 62.1456L37.0369 77.9008C37.0369 80.8549 31.621 80.8549 31.4979 78.147L30.6363 63.6226L22.3895 55.0065C21.0355 53.5295 20.297 51.5601 20.6662 49.0983L22.2664 34.8202C23.128 27.4349 31.621 27.3118 34.2059 32.1123L38.8832 41.7131L47.7455 42.8209C49.5918 43.6825 49.4687 46.1442 48.6071 47.1289L36.5445 46.8828C36.1753 46.8828 35.5598 46.5135 35.3137 46.2673C33.5904 43.9287 31.8672 41.7131 30.144 39.4975L32.4826 42.6978ZM80.1079 77.2854C80.1079 75.6852 81.4618 74.3313 83.062 74.3313C84.6621 74.3313 85.893 75.5621 86.0161 77.2854C86.0161 78.8855 84.6621 80.2394 83.062 80.2394C81.4618 80.2394 80.1079 78.8855 80.1079 77.2854Z" stroke="#707C8B" stroke-miterlimit="22.9256"/>
<path d="M34.4505 21.3555C34.4505 18.6556 32.2699 16.3711 29.4661 16.3711C26.7662 16.3711 24.4817 18.6556 24.4817 21.3555C24.4817 24.0554 26.6624 26.3399 29.4661 26.3399C32.166 26.3399 34.4505 24.1592 34.4505 21.3555Z" stroke="#707C8B" stroke-miterlimit="22.9256"/>
<rect x="0.5" y="0.5" width="96" height="96" rx="14.5" stroke="#CFD3D8"/>
</svg>
