<svg width="97" height="97" viewBox="0 0 97 97" fill="none" xmlns="http://www.w3.org/2000/svg">
<rect x="0.5" y="0.5" width="96" height="96" rx="14.5" fill="white"/>
<path d="M26.3981 59.7556C26.3981 60.4941 26.275 61.9712 26.275 62.0942C26.0288 64.1867 25.9057 64.4329 24.6749 66.5254L17.2896 78.9572C15.4433 82.0344 10.766 79.3265 12.3661 76.0031L18.8898 63.0789L20.3668 52.7396M55.5698 74.5261C53.9697 74.5261 52.6157 75.88 52.6157 77.4802C52.6157 79.0803 53.9697 80.4343 55.5698 80.4343C57.17 80.4343 58.5239 79.0803 58.5239 77.4802C58.5239 75.757 57.17 74.5261 55.5698 74.5261ZM55.5698 74.5261L52.8619 52.2472L51.8772 45.8467L48.4307 45.3544M55.5698 74.5261H86.9619M55.5698 74.5261L52.8619 52.1242M55.5698 74.5261L55.0516 74.5739L53.9697 75.0184M31.8139 42.8926L30.2138 50.4009C30.0907 50.8933 30.0907 51.3856 30.3369 51.7549L35.6296 59.1401C36.3682 60.0018 36.7374 61.1095 36.7374 62.3404L36.3682 78.0956C36.3682 81.0497 30.9523 81.0497 30.8292 78.3418L29.9676 63.8175L21.7208 55.2013C20.3668 53.7243 19.6283 51.7549 19.9975 49.2931L21.5977 35.015C22.4593 27.6298 30.9523 27.5067 33.5372 32.3071L38.2145 41.9079L47.0768 43.0157C48.9231 43.8773 48.8 46.3391 47.9384 47.3238L35.8758 47.0776C35.5066 47.0776 34.8911 46.7083 34.6449 46.4621C32.9217 44.1235 31.1985 41.9079 29.4753 39.6923L31.8139 42.8926ZM79.4392 77.4802C79.4392 75.88 80.7931 74.5261 82.3933 74.5261C83.9934 74.5261 85.2243 75.757 85.3474 77.4802C85.3474 79.0803 83.9934 80.4343 82.3933 80.4343C80.7931 80.4343 79.4392 79.0803 79.4392 77.4802Z" stroke="#707C8B" stroke-miterlimit="22.9256"/>
<path d="M33.7818 21.5503C33.7818 18.8504 31.6012 16.5659 28.7974 16.5659C26.0975 16.5659 23.813 18.8504 23.813 21.5503C23.813 24.2502 25.9937 26.5348 28.7974 26.5348C31.4973 26.5348 33.7818 24.3541 33.7818 21.5503Z" stroke="#707C8B" stroke-miterlimit="22.9256"/>
<path d="M69.1668 56.8061C69.2266 56.6219 69.4873 56.6219 69.5472 56.8061L71.0966 61.5747C71.1234 61.6571 71.2001 61.7129 71.2868 61.7129H76.3008C76.4945 61.7129 76.5751 61.9608 76.4183 62.0747L72.3619 65.0218C72.2918 65.0728 72.2625 65.163 72.2893 65.2454L73.8387 70.014C73.8986 70.1983 73.6877 70.3515 73.5309 70.2376L69.4745 67.2905C69.4044 67.2396 69.3095 67.2396 69.2394 67.2905L65.183 70.2376C65.0263 70.3515 64.8154 70.1983 64.8752 70.014L66.4246 65.2454C66.4514 65.163 66.4221 65.0728 66.352 65.0218L62.2956 62.0747C62.1389 61.9608 62.2194 61.7129 62.4132 61.7129H67.4271C67.5138 61.7129 67.5906 61.6571 67.6173 61.5747L69.1668 56.8061Z" stroke="#707C8B" stroke-miterlimit="22.9256"/>
<rect x="0.5" y="0.5" width="96" height="96" rx="14.5" stroke="#CFD3D8"/>
</svg>
