<svg width="97" height="97" viewBox="0 0 97 97" fill="none" xmlns="http://www.w3.org/2000/svg">
<rect x="0.5" y="0.5" width="96" height="96" rx="14.5" fill="white"/>
<path d="M25.3832 75.5298L26.2402 80.3697L46.5077 76.7719" stroke="#707C8B" stroke-miterlimit="10" stroke-linecap="round" stroke-linejoin="round"/>
<path d="M75.3877 28.1581L72.8596 13.8096L48.3929 18.1356H48.3501L41.7513 19.292L16.2563 23.7893L22.3408 58.2687" stroke="#707C8B" stroke-miterlimit="10" stroke-linecap="round" stroke-linejoin="round"/>
<path d="M77.0589 71.4179C77.0589 71.3751 77.0589 71.3751 77.0589 71.4179L82.8435 70.3899L78.2158 44.2627" stroke="#707C8B" stroke-miterlimit="10" stroke-linecap="round" stroke-linejoin="round"/>
<path d="M76.8017 36.2099V36.1675" stroke="#707C8B" stroke-miterlimit="10" stroke-linecap="round" stroke-linejoin="round"/>
<path d="M24.5262 59.6821C31.6391 62.3377 42.7369 66.2782 45.9506 66.2782C48.6072 66.2782 51.0068 65.2074 53.4063 64.2223C55.4202 63.4085 57.3912 62.6375 59.6194 62.5518C64.5042 62.3805 64.8898 62.6803 68.789 63.3228C70.2031 63.537 72.2598 62.6375 72.3455 63.8368C72.5169 66.064 70.3744 67.2633 68.4034 67.2633C64.4613 67.2633 63.3472 67.2633 63.3472 67.2633C63.3472 67.2633 65.2326 70.8612 68.4034 71.418C71.0172 71.8463 75.602 71.5893 77.0589 71.4608C77.3588 71.418 77.5302 71.418 77.5302 71.418C77.5302 71.418 77.5302 74.459 74.5736 75.3585C74.4879 77.4572 73.4596 78.271 71.9599 78.6993C71.3171 81.2264 69.2175 81.9545 66.8608 82.1687C66.8608 82.1687 66.818 82.2115 66.7323 82.2972C66.261 82.7683 64.3756 84.2674 58.7196 83.7106C55.2488 83.368 50.364 78.5708 46.4648 76.8576C45.7364 76.5578 45.0508 76.3436 44.4081 76.2579C41.9657 76.0438 32.5818 75.744 25.3403 75.5726C24.4833 75.5298 23.6692 75.5298 22.8979 75.5298" stroke="#707C8B" stroke-miterlimit="10" stroke-linecap="round" stroke-linejoin="round"/>
<path d="M72.0027 78.6567C70.8029 78.9994 69.3032 79.1279 67.8035 79.4705" stroke="#707C8B" stroke-miterlimit="10" stroke-linecap="round" stroke-linejoin="round"/>
<path d="M66.9036 82.083C65.7895 82.1687 67.5892 82.2972 66.4323 82.1687" stroke="#707C8B" stroke-miterlimit="10" stroke-linecap="round" stroke-linejoin="round"/>
<path d="M74.5736 75.3154C74.4022 75.3583 74.188 75.4011 73.9737 75.4439C69.7317 76.2149 68.7462 76.1721 68.7462 76.1721" stroke="#707C8B" stroke-miterlimit="10" stroke-linecap="round" stroke-linejoin="round"/>
<path d="M48.3744 18.1239L41.7493 19.292L44.0864 32.5367L50.7114 31.3686L48.3744 18.1239Z" stroke="#707C8B" stroke-miterlimit="10" stroke-linecap="round" stroke-linejoin="round"/>
<path d="M78.687 40.0222C79.8011 39.8081 80.8723 40.5362 81.0865 41.6498C81.3008 42.7634 80.5723 43.8342 79.4583 44.0484L78.4299 44.2625C77.3158 44.4767 76.2446 43.7486 76.0304 42.635C75.8161 41.5213 76.5445 40.4505 77.6586 40.2364L78.687 40.0222Z" stroke="#707C8B" stroke-miterlimit="10" stroke-linejoin="round"/>
<path d="M76.2875 27.9436C77.4016 27.7295 78.4728 28.4576 78.6871 29.5712C78.9013 30.6848 78.1729 31.7556 77.0588 31.9698L75.3877 32.3124C74.2736 32.5266 73.2024 31.7985 72.9882 30.6848C72.7739 29.5712 73.5023 28.5004 74.6164 28.2863L76.2875 27.9436Z" stroke="#707C8B" stroke-miterlimit="10" stroke-linejoin="round"/>
<path d="M78.687 35.8245C79.8011 35.6103 80.8723 36.3385 81.0865 37.4521C81.3008 38.5657 80.5723 39.6365 79.4583 39.8506L75.6447 40.5788C74.5307 40.7929 73.4594 40.0648 73.2452 38.9512C73.0309 37.8376 73.7594 36.7668 74.8734 36.5526L78.687 35.8245Z" stroke="#707C8B" stroke-miterlimit="10" stroke-linejoin="round"/>
<path d="M77.6586 31.8411C78.7727 31.6269 79.8439 32.3551 80.0582 33.4687C80.2724 34.5823 79.544 35.6531 78.4299 35.8672L75.1306 36.5097C74.0165 36.7239 72.9453 35.9957 72.731 34.8821C72.5168 33.7685 73.2452 32.6977 74.3593 32.4835L77.6586 31.8411Z" stroke="#707C8B" stroke-miterlimit="10" stroke-linejoin="round"/>
<path d="M47.6646 31.7559L53.4063 64.2222" stroke="#707C8B" stroke-miterlimit="10"/>
<path d="M41.6229 51.8867L27.4399 54.3709" stroke="#707C8B" stroke-miterlimit="10"/>
<path d="M38.5806 49.7451L36.9952 40.5791" stroke="#707C8B" stroke-miterlimit="10"/>
<path d="M40.766 42.5493L36.8239 39.8081L34.1244 43.7058" stroke="#707C8B" stroke-miterlimit="10"/>
<path d="M29.5824 51.3295L27.9541 42.1636" stroke="#707C8B" stroke-miterlimit="10"/>
<path d="M31.7249 44.1343L27.8256 41.3931L25.0833 45.2907" stroke="#707C8B" stroke-miterlimit="10"/>
<path d="M22.7265 77.8428L14.7995 77.1147L16.6848 56.5127L24.6119 58.9541L22.7265 77.8428Z" stroke="#707C8B" stroke-miterlimit="10" stroke-linecap="round" stroke-linejoin="round"/>
<rect x="0.5" y="0.5" width="96" height="96" rx="14.5" stroke="#CFD3D8"/>
</svg>
