<svg width="97" height="97" viewBox="0 0 97 97" fill="none" xmlns="http://www.w3.org/2000/svg">
<rect x="0.5" y="0.5" width="96" height="96" rx="14.5" fill="white"/>
<path d="M17.7777 66.0445H10.5423C10.1674 66.0445 9.82997 65.7446 9.82997 65.3322V62.558C9.82997 62.1831 10.1299 61.8457 10.5423 61.8457H12.0418H19.1273" stroke="#707C8B" stroke-miterlimit="10"/>
<path d="M65.2388 66.0449H32.0234" stroke="#707C8B" stroke-miterlimit="10"/>
<path d="M79.4846 66.0445H86.4576C86.8325 66.0445 87.1699 65.7446 87.1699 65.3322V62.558C87.1699 62.1831 86.87 61.8457 86.4576 61.8457H84.958H78.1725" stroke="#707C8B" stroke-miterlimit="10"/>
<path d="M66.6259 61.8457H55.4916H30.6364" stroke="#707C8B" stroke-miterlimit="10"/>
<path d="M78.135 61.8462H84.9205C84.9205 61.8462 84.9205 61.8462 84.9205 60.0468C84.9205 55.3981 85.033 52.4365 84.3957 50.6745C84.0958 49.8497 83.6084 48.7626 83.196 47.7878C81.434 43.7765 78.8473 37.7033 76.7104 34.3293C75.2108 31.9674 74.3486 31.5176 72.4741 31.5176C64.5639 31.5176 55.4916 31.5176 55.4916 31.5176V54.2734V61.8088H66.6258" stroke="#707C8B" stroke-miterlimit="10" stroke-linecap="round" stroke-linejoin="round"/>
<path d="M80.0845 48.05C79.8221 47.4502 79.5596 46.8504 79.2972 46.2131C77.9851 43.1015 76.6355 39.8399 75.2109 37.4406C73.4489 34.5165 73.1115 34.479 72.5117 34.479H58.7575V48.05H80.0845Z" stroke="#707C8B" stroke-miterlimit="10"/>
<path d="M55.4916 31.5173V23.832H12.0418V54.2732V61.846H19.1272" stroke="#707C8B" stroke-miterlimit="10" stroke-linecap="round" stroke-linejoin="round"/>
<path d="M30.6364 61.8457H55.4916" stroke="#707C8B" stroke-miterlimit="10"/>
<path d="M65.2389 66.0448C65.2389 62.1084 68.4254 58.9219 72.3618 58.9219C76.2981 58.9219 79.4847 62.1084 79.4847 66.0448C79.4847 69.9812 76.2981 73.1677 72.3618 73.1677C68.4254 73.1677 65.2389 69.9812 65.2389 66.0448Z" stroke="#707C8B" stroke-miterlimit="10" stroke-linecap="round" stroke-linejoin="round"/>
<path d="M69.3671 66.0448C69.3671 64.3837 70.7118 63.0127 72.3992 63.0127C74.0602 63.0127 75.4313 64.3574 75.4313 66.0448C75.4313 67.7058 74.0866 69.0769 72.3992 69.0769C70.7118 69.0505 69.3671 67.7058 69.3671 66.0448Z" stroke="#707C8B" stroke-miterlimit="10"/>
<path d="M17.7775 66.0448C17.7775 62.1084 20.9641 58.9219 24.9004 58.9219C28.8368 58.9219 32.0234 62.1084 32.0234 66.0448C32.0234 69.9812 28.8368 73.1677 24.9004 73.1677C20.9641 73.1677 17.7775 69.9812 17.7775 66.0448Z" stroke="#707C8B" stroke-miterlimit="10" stroke-linecap="round" stroke-linejoin="round"/>
<path d="M21.8825 66.0448C21.8825 64.3915 23.2209 63.0269 24.9005 63.0269C26.5538 63.0269 27.9185 64.3653 27.9185 66.0448C27.9185 67.6982 26.5801 69.0628 24.9005 69.0628C23.2209 69.0366 21.8825 67.6982 21.8825 66.0448Z" stroke="#707C8B" stroke-miterlimit="10"/>
<path d="M84.3581 54.9102H80.4593C80.0844 54.9102 79.747 55.2101 79.747 55.6224V57.9468C79.747 58.3217 80.0469 58.6591 80.4593 58.6591H84.3581" stroke="#707C8B" stroke-miterlimit="10"/>
<path d="M61.0775 53.1108H65.0888" stroke="#707C8B" stroke-miterlimit="10" stroke-linecap="round"/>
<path d="M70.1123 46.4378L75.3608 41.1519" stroke="#707C8B" stroke-miterlimit="10"/>
<path d="M72.7366 43.814L76.8979 47.9378" stroke="#707C8B" stroke-miterlimit="10"/>
<rect x="0.5" y="0.5" width="96" height="96" rx="14.5" stroke="#CFD3D8"/>
</svg>
