<svg width="97" height="97" viewBox="0 0 97 97" fill="none" xmlns="http://www.w3.org/2000/svg">
<rect x="0.5" y="0.5" width="96" height="96" rx="14.5" fill="white"/>
<path d="M34.0458 51.7802L40.0785 45.7476" stroke="#707C8B" stroke-miterlimit="10" stroke-linecap="round"/>
<path d="M44.5833 55.5945L37.0621 48.7637" stroke="#707C8B" stroke-miterlimit="10"/>
<path d="M56.7662 55.6077L45.7978 52.3955C45.1318 52.3955 44.5834 52.9439 44.5834 53.6099V55.8427V62.6588V66.2627C44.5834 66.9287 45.1318 67.4771 45.7978 67.4771H50.616" stroke="#707C8B" stroke-miterlimit="10" stroke-linejoin="round"/>
<path d="M61.2552 60.6526L61.2552 59.3599L61.2552 53.0835L61.2552 47.7085" stroke="#707C8B" stroke-miterlimit="10" stroke-linecap="round" stroke-linejoin="round"/>
<path d="M47.6389 35.7471L56.7662 55.6077L59.3516 61.2095" stroke="#707C8B" stroke-miterlimit="10" stroke-linecap="round" stroke-linejoin="round"/>
<path d="M27.9741 73.8228H29.5802H29.7369H32.6749H47.9915H52.5355H54.1416" stroke="#707C8B" stroke-miterlimit="10" stroke-linecap="round" stroke-linejoin="round"/>
<path d="M67.4213 73.8231H68.1656C68.1656 73.8231 68.5573 73.8231 69.0274 73.7448C69.8108 73.5881 70.8685 73.1963 70.8685 72.0211C70.8685 69.8666 70.9077 65.7143 70.9077 65.7143C70.9077 63.6773 68.9882 62.463 66.5986 61.797C65.4626 61.4836 64.2091 61.2878 62.9947 61.1703C62.6814 61.1311 62.4071 61.1311 62.1329 61.0919C61.6629 61.0527 61.1928 61.0527 60.7619 61.0527C60.331 61.0527 59.9001 61.0919 59.5084 61.1311C59.43 61.1311 59.3908 61.1311 59.3125 61.1703C55.4344 61.6403 52.183 64.069 50.5378 67.4379L50.5769 67.4771H45.7978H42.6052H39.4127L37.3365 61.0919H34.6727H21.3931H19.1211" stroke="#707C8B" stroke-miterlimit="10" stroke-linecap="round" stroke-linejoin="round"/>
<path d="M19.121 35.7471V47.4598V61.0919V61.327" stroke="#707C8B" stroke-miterlimit="10" stroke-linecap="round" stroke-linejoin="round"/>
<path d="M61.2552 54.5508C60.979 54.5508 60.7552 54.7746 60.7552 55.0508C60.7552 55.3269 60.979 55.5508 61.2552 55.5508V54.5508ZM90.9882 55.5508C91.2643 55.5508 91.4882 55.3269 91.4882 55.0508C91.4882 54.7746 91.2643 54.5508 90.9882 54.5508V55.5508ZM90.9882 54.5508H61.2552V55.5508H90.9882V54.5508Z" fill="#707C8B"/>
<path d="M19.121 61.0138V47.4576C19.121 47.4576 22.254 46.1721 23.9278 48.6262C25.6016 51.0804 24.7433 56.6509 24.7433 56.6509C27.5759 56.3782 30.5801 55.8718 33.4127 56.4171C34.829 56.6898 35.9878 57.1183 36.6315 58.3649C37.0607 59.144 37.5757 61.0527 35.9448 61.0527H35.6015H19.121V61.0138Z" stroke="#707C8B" stroke-miterlimit="10" stroke-linejoin="round"/>
<path d="M67.5387 72.5298C67.5387 72.9607 67.4995 73.4308 67.4212 73.8617C66.7944 76.9564 64.0523 79.3068 60.801 79.3068C57.5104 79.3068 54.7683 76.9564 54.1808 73.8617C54.1024 73.4308 54.0632 72.9999 54.0632 72.5298C54.0632 70.532 54.9642 68.6909 56.3353 67.4765C57.5104 66.4189 59.1165 65.7529 60.8401 65.7529C61.036 65.7529 61.2319 65.7529 61.4277 65.7921C64.8358 66.0663 67.5387 69.0043 67.5387 72.5298Z" stroke="#707C8B" stroke-miterlimit="10" stroke-linecap="round" stroke-linejoin="round"/>
<path d="M28.0916 72.5298C28.0916 72.9607 28.0525 73.4308 27.9741 73.8617C27.3473 76.9564 24.6052 79.3068 21.3539 79.3068C18.0634 79.3068 15.3213 76.9564 14.7337 73.8617C14.6553 73.4308 14.6161 72.9999 14.6161 72.5298C14.6161 70.532 15.5171 68.6909 16.8882 67.4765C18.0634 66.4189 19.6695 65.7529 21.3931 65.7529C21.5889 65.7529 21.7848 65.7529 21.9807 65.7921C25.3887 66.0663 28.0916 69.0043 28.0916 72.5298Z" stroke="#707C8B" stroke-miterlimit="10" stroke-linecap="round" stroke-linejoin="round"/>
<path d="M60.7573 74.6888C59.5582 74.6888 58.569 73.6996 58.569 72.5305C58.569 71.3314 59.5582 70.3721 60.7573 70.3721C61.9564 70.3721 62.9157 71.3613 62.9157 72.5305C62.9457 73.7296 61.9564 74.6888 60.7573 74.6888Z" stroke="#707C8B" stroke-miterlimit="10" stroke-linecap="round" stroke-linejoin="round"/>
<path d="M21.3102 74.6888C20.1111 74.6888 19.1219 73.6996 19.1219 72.5305C19.1219 71.3314 20.1111 70.3721 21.3102 70.3721C22.5094 70.3721 23.4686 71.3613 23.4686 72.5305C23.4986 73.7296 22.5094 74.6888 21.3102 74.6888Z" stroke="#707C8B" stroke-miterlimit="10" stroke-linecap="round" stroke-linejoin="round"/>
<path d="M14.7337 73.6663H9.95458C9.91541 73.2746 9.91541 72.922 9.91541 72.5303C9.91541 70.1799 10.6205 68.0254 11.8349 66.2234C13.0101 64.4998 14.6162 63.0896 16.5356 62.1886C17.3583 61.7969 18.2201 61.5227 19.121 61.3268C19.8261 61.1701 20.5704 61.0918 21.3147 61.0918" stroke="#707C8B" stroke-miterlimit="10" stroke-linecap="round" stroke-linejoin="round"/>
<path d="M46.072 31.5161H15.7522C15.3213 31.5161 14.9687 31.8687 14.9687 32.2996V34.9633C14.9687 35.3942 15.3213 35.7468 15.7522 35.7468H33.4779H51.2036C52.9664 35.7468 50.0676 31.5161 46.072 31.5161Z" stroke="#707C8B" stroke-miterlimit="10" stroke-linecap="round" stroke-linejoin="round"/>
<path d="M86.9726 35.6602H65.2708V55.0116H86.9726V35.6602Z" stroke="#707C8B" stroke-miterlimit="10" stroke-linecap="round" stroke-linejoin="round"/>
<path d="M77.6103 35.6602H74.6723V41.2227H77.6103V35.6602Z" stroke="#707C8B" stroke-miterlimit="10"/>
<path d="M86.9726 16.3086H65.2708V35.66H86.9726V16.3086Z" stroke="#707C8B" stroke-miterlimit="10" stroke-linecap="round" stroke-linejoin="round"/>
<path d="M77.6103 16.3086H74.6723V21.8711H77.6103V16.3086Z" stroke="#707C8B" stroke-miterlimit="10"/>
<rect x="0.5" y="0.5" width="96" height="96" rx="14.5" stroke="#CFD3D8"/>
</svg>
