<svg width="97" height="97" viewBox="0 0 97 97" fill="none" xmlns="http://www.w3.org/2000/svg">
<rect x="0.5" y="0.5" width="96" height="96" rx="14.5" fill="white"/>
<path d="M56.75 48L31.9583 72.7917C29.5375 75.2125 25.6292 75.2125 23.2083 72.7917C22.6333 72.2174 22.1772 71.5354 21.866 70.7847C21.5547 70.034 21.3945 69.2293 21.3945 68.4167C21.3945 67.604 21.5547 66.7993 21.866 66.0486C22.1772 65.2979 22.6333 64.6159 23.2083 64.0417L48 39.25" stroke="#707C8B" stroke-linecap="round" stroke-linejoin="round"/>
<path d="M64.45 56.7499L77.1667 44.0332" stroke="#707C8B" stroke-linecap="round" stroke-linejoin="round"/>
<path d="M73.9875 47.125L70.3417 43.4791C68.5917 41.7291 67.6292 39.3958 67.6292 36.9166V34.4083L59.6958 26.4166C58.1898 24.9018 56.3993 23.6994 54.4272 22.8785C52.4551 22.0576 50.3403 21.6345 48.2042 21.6333H39.25L41.9333 24.025C43.8392 25.7149 45.3654 27.7895 46.4111 30.1122C47.4568 32.4348 47.9983 34.9528 48 37.5V42.05L53.8333 47.8833H61.0375L67.6292 53.4541" stroke="#707C8B" stroke-linecap="round" stroke-linejoin="round"/>
<rect x="0.5" y="0.5" width="96" height="96" rx="14.5" stroke="#CFD3D8"/>
</svg>
